<?xml version="1.0" standalone="no"?>
<!DOCTYPE svg PUBLIC "-//W3C//DTD SVG 20010904//EN"
 "http://www.w3.org/TR/2001/REC-SVG-20010904/DTD/svg10.dtd">
<svg version="1.0" xmlns="http://www.w3.org/2000/svg"
 width="1080.000000pt" height="816.000000pt" viewBox="0 0 1080.000000 816.000000"
 preserveAspectRatio="xMidYMid meet">
<metadata>
Created by potrace 1.15, written by Peter Selinger 2001-2017
</metadata>
<g transform="translate(0.000000,816.000000) scale(0.100000,-0.100000)"
fill="#000000" stroke="none">
<path d="M0 4080 l0 -4080 5400 0 5400 0 0 4080 0 4080 -5400 0 -5400 0 0
-4080z m5885 2486 c247 -24 438 -48 522 -67 22 -5 70 -13 105 -19 84 -13 149
-26 228 -45 36 -9 83 -20 105 -25 78 -17 464 -136 530 -164 17 -7 46 -19 65
-26 19 -7 54 -21 78 -31 24 -11 62 -27 85 -36 50 -19 340 -161 415 -203 29
-16 106 -64 171 -105 65 -41 128 -75 140 -75 12 0 21 -6 21 -14 0 -15 45 -56
61 -56 5 0 9 12 9 28 1 26 1 26 13 6 7 -12 18 -19 25 -17 10 4 10 -1 0 -22
-11 -24 -10 -29 12 -46 28 -21 20 -26 75 43 11 14 27 28 35 31 8 4 22 11 30
15 44 25 62 32 82 31 20 -1 21 -2 3 -6 -70 -15 -175 -98 -175 -137 1 -35 71
-76 133 -78 50 -1 50 -2 10 -5 -24 -2 -43 -8 -43 -12 0 -12 55 -61 68 -61 7 0
12 -4 12 -9 0 -17 63 -70 90 -76 21 -5 27 -11 23 -25 -4 -13 1 -19 19 -22 17
-2 22 -8 20 -24 -2 -16 5 -24 28 -32 19 -7 30 -18 30 -30 0 -23 70 -112 88
-112 6 0 12 -8 12 -18 0 -11 21 -50 48 -88 26 -38 52 -78 58 -89 25 -44 34
-28 34 59 0 47 3 86 8 86 4 0 6 -49 4 -109 -2 -87 0 -111 13 -121 8 -7 15 -22
15 -35 0 -12 9 -30 20 -40 11 -10 20 -27 20 -38 0 -11 6 -28 13 -36 7 -9 19
-34 26 -56 7 -22 24 -54 37 -71 15 -20 19 -35 13 -41 -15 -15 1 -43 25 -44 18
-1 18 -2 3 -6 -16 -4 -18 -11 -12 -41 4 -21 12 -44 20 -52 11 -13 24 -78 30
-153 1 -15 5 -30 8 -34 4 -3 7 -19 7 -35 0 -15 5 -28 12 -28 9 0 9 -3 0 -12
-17 -17 -15 -38 4 -38 13 0 14 -3 4 -15 -9 -11 -10 -29 -4 -62 5 -27 9 -56 9
-65 0 -9 4 -20 8 -24 4 -4 2 -13 -4 -21 -7 -7 -13 -36 -14 -63 -2 -27 -6 -54
-10 -59 -3 -6 -4 -20 0 -30 3 -11 1 -22 -5 -26 -6 -4 -8 -14 -5 -24 3 -9 -2
-43 -10 -74 -8 -32 -15 -71 -15 -86 0 -15 -3 -31 -7 -35 -9 -8 -33 -77 -33
-93 0 -7 12 -13 27 -13 31 0 24 -12 -9 -15 -13 -1 -26 -3 -30 -4 -12 -2 -9
-36 4 -49 9 -9 9 -12 -3 -12 -13 0 -59 -84 -59 -110 0 -6 -9 -23 -20 -37 -11
-14 -20 -32 -20 -40 0 -8 -9 -28 -21 -44 -13 -19 -18 -36 -14 -50 5 -13 3 -19
-3 -15 -16 10 -37 -23 -26 -42 5 -10 7 -56 3 -107 l-6 -90 -1 87 c-1 48 -6 89
-11 93 -9 5 -51 -45 -51 -60 0 -4 -21 -34 -46 -67 -25 -33 -43 -66 -40 -74 3
-8 0 -14 -7 -14 -19 0 -74 -65 -88 -104 -7 -20 -20 -36 -28 -36 -23 0 -71 -51
-71 -76 0 -15 -9 -25 -27 -32 -34 -12 -95 -71 -86 -85 4 -6 1 -7 -6 -2 -8 4
-24 -4 -42 -21 -35 -33 -36 -41 -6 -47 16 -3 13 -5 -11 -6 -31 -1 -71 -20 -99
-48 -44 -41 35 -125 157 -166 9 -3 4 -6 -10 -6 -43 -2 -126 50 -156 96 -24 38
-29 41 -48 31 -32 -17 -37 -30 -21 -55 19 -29 19 -32 -3 -26 -12 3 -21 -4 -29
-24 -11 -27 -12 -27 -6 10 6 45 -11 49 -51 12 -15 -14 -29 -25 -32 -25 -2 0
-44 -25 -92 -57 -173 -112 -261 -162 -438 -248 -98 -48 -188 -91 -199 -95
-101 -42 -156 -64 -190 -77 -22 -9 -49 -19 -60 -23 -55 -22 -272 -91 -400
-126 -257 -72 -552 -129 -790 -154 -55 -6 -111 -13 -125 -15 -120 -25 -752
-43 -925 -26 -60 5 -168 15 -240 22 -239 22 -277 26 -490 63 -104 18 -153 28
-250 50 -38 9 -88 21 -110 26 -84 19 -131 31 -155 39 -14 5 -52 17 -85 26 -64
18 -257 81 -290 94 -11 5 -40 16 -65 26 -80 31 -84 33 -120 48 -19 9 -58 25
-85 37 -238 102 -438 210 -647 351 -48 33 -90 59 -94 59 -4 0 -13 -8 -20 -17
-12 -16 -13 -14 -14 17 0 25 -8 40 -25 53 -36 26 -48 13 -42 -47 4 -44 3 -47
-6 -23 -8 20 -17 27 -29 24 -10 -3 -18 -1 -18 4 0 5 3 9 8 9 7 0 32 47 32 62
0 14 -44 48 -62 48 -10 0 -18 4 -18 9 0 14 -133 141 -147 141 -7 0 -13 6 -13
13 0 8 -11 19 -25 25 -14 6 -25 17 -25 25 0 7 -10 19 -22 27 -12 8 -30 23 -40
32 -10 10 -22 18 -28 18 -5 0 -10 5 -10 10 0 6 -11 23 -25 38 -14 15 -25 31
-25 37 0 17 -44 62 -68 69 -17 6 -21 13 -17 27 5 14 -2 28 -24 48 -17 16 -31
36 -31 44 0 8 -7 20 -15 27 -8 7 -15 17 -15 23 0 5 -11 25 -25 43 -14 18 -25
37 -25 42 0 5 -7 16 -17 23 -13 11 -17 11 -20 1 -3 -6 -9 -10 -14 -7 -5 3 -3
14 3 25 13 20 -4 64 -49 126 -13 17 -20 33 -17 36 3 4 -6 31 -20 62 -14 30
-28 68 -32 83 -3 16 -9 37 -14 48 -19 46 -37 110 -46 155 -19 107 -24 132 -31
143 -4 6 -6 22 -4 35 2 19 -2 22 -31 23 -27 1 -29 3 -8 6 14 3 28 10 32 16 11
17 -10 35 -35 31 -13 -3 -16 -1 -7 2 36 17 41 31 32 103 -5 39 -4 79 1 93 5
12 6 37 4 55 -3 17 -3 34 1 38 4 3 8 26 9 51 3 36 0 44 -14 45 -14 0 -13 2 4
9 15 6 24 21 28 47 3 21 8 49 11 63 3 14 7 34 8 45 2 11 9 40 16 65 8 25 13
50 11 57 -1 6 3 14 8 18 9 5 28 100 23 117 -1 4 4 5 12 2 12 -5 28 27 31 61 0
6 19 45 43 88 35 65 40 82 31 99 -9 17 -8 19 8 14 14 -4 30 13 77 89 32 52 67
102 77 111 11 9 19 28 19 41 0 13 7 26 15 29 8 4 12 11 8 17 -3 5 -2 7 4 4 11
-7 53 35 72 73 12 26 34 49 129 138 28 27 52 54 52 60 0 7 6 12 13 12 7 0 39
25 71 55 31 30 62 55 67 55 5 0 9 21 9 47 0 41 -5 51 -36 79 -19 18 -49 39
-65 46 -38 17 -38 30 1 17 17 -6 30 -15 30 -20 0 -5 5 -9 11 -9 19 0 69 -64
69 -88 0 -30 26 -39 50 -17 24 22 25 53 3 85 -16 22 -16 23 1 17 12 -5 19 0
26 16 7 18 9 13 9 -25 1 -27 5 -48 10 -48 22 0 61 51 61 80 0 16 5 30 11 30 6
0 8 -7 5 -15 -11 -31 24 -26 71 8 187 136 566 339 818 437 11 4 40 15 65 25
25 10 54 21 65 25 11 4 43 15 70 25 28 9 59 20 70 25 11 4 49 16 85 26 36 9
70 21 75 24 6 4 24 10 40 13 17 3 80 18 140 35 150 40 272 66 450 97 180 31
202 34 355 50 85 8 191 19 235 24 84 9 776 6 880 -3z"/>
<path d="M5110 6484 c-14 -2 -88 -9 -165 -14 -199 -15 -293 -26 -550 -69 -174
-29 -475 -102 -620 -150 -33 -11 -66 -21 -73 -21 -8 0 -28 -6 -45 -14 -18 -8
-59 -24 -92 -34 -61 -20 -191 -70 -255 -98 -104 -47 -136 -61 -255 -120 -115
-56 -362 -196 -375 -213 -3 -3 -45 -33 -95 -66 -264 -176 -534 -439 -707 -685
-223 -320 -348 -697 -348 -1052 0 -67 5 -149 10 -182 29 -164 42 -234 51 -261
37 -121 68 -204 110 -294 27 -57 49 -105 49 -108 0 -2 8 -16 18 -31 11 -15 50
-74 88 -132 74 -113 72 -110 165 -219 125 -147 326 -332 509 -467 60 -44 248
-165 326 -209 80 -46 325 -169 384 -194 30 -13 69 -29 85 -37 117 -52 435
-162 575 -199 36 -9 88 -23 115 -31 28 -8 83 -21 123 -29 39 -8 105 -22 145
-31 39 -8 97 -19 127 -24 30 -4 100 -16 155 -25 172 -28 632 -64 841 -65 363
-1 780 40 1139 112 169 33 252 52 328 72 31 9 81 22 110 30 296 80 670 234
967 396 64 35 265 159 295 182 6 4 55 41 110 81 337 247 605 553 764 872 39
77 82 174 97 215 190 541 114 1090 -219 1590 -64 96 -100 143 -182 240 -86
102 -271 275 -405 381 -62 48 -219 159 -226 159 -4 0 -27 15 -53 34 -111 81
-422 240 -646 330 -38 16 -83 34 -100 42 -42 18 -352 121 -400 133 -22 5 -58
15 -80 21 -102 29 -357 86 -445 100 -30 4 -100 15 -155 24 -256 42 -583 65
-905 64 -146 -1 -276 -3 -290 -4z m-1576 -672 c2 -4 5 -49 7 -99 3 -90 2 -93
-26 -125 -24 -27 -30 -30 -33 -15 -2 10 -13 17 -26 17 -12 0 -25 3 -29 6 -11
11 5 34 23 34 27 0 33 16 36 96 1 40 5 78 9 84 7 12 32 13 39 2z m3247 -68
c22 -23 24 -34 24 -122 0 -88 -3 -103 -30 -156 -30 -59 -149 -181 -166 -170
-13 8 -11 81 2 107 7 12 27 41 46 64 73 91 83 175 27 230 -7 7 -17 13 -23 13
-19 0 -12 27 12 43 35 25 80 21 108 -9z m-3329 -258 c-22 -31 -34 -97 -33
-184 1 -115 27 -200 82 -271 12 -15 19 -40 19 -70 1 -145 112 -264 300 -322
58 -18 69 -24 48 -27 -15 -2 -43 1 -62 7 -92 25 -222 -56 -267 -166 -40 -98
-12 -229 65 -306 28 -28 36 -44 36 -72 0 -33 -2 -35 -34 -35 -65 0 -66 -2 -66
-111 0 -83 -2 -97 -15 -93 -8 4 -15 14 -15 23 0 9 -5 22 -11 28 -8 8 -7 17 4
33 12 17 13 29 6 48 -8 20 -6 28 4 34 20 11 16 86 -7 120 -15 23 -16 34 -8 75
6 27 8 66 5 88 -6 47 -49 116 -81 130 -36 16 -28 38 11 31 26 -5 40 -1 60 15
31 23 36 51 10 48 -32 -3 -56 1 -50 8 4 3 21 6 39 7 32 1 33 3 35 44 2 69 5
72 73 72 33 0 60 4 60 8 0 4 -14 16 -30 26 -17 9 -40 31 -52 47 -12 16 -26 29
-31 29 -17 0 -78 51 -72 60 8 14 -14 22 -40 16 -13 -3 -26 -14 -28 -24 -3 -9
-5 69 -6 175 0 105 -4 198 -7 207 -9 24 -54 19 -97 -10 -21 -14 -43 -23 -50
-20 -7 2 -5 5 4 5 17 1 29 21 29 47 0 11 -8 14 -27 12 -22 -2 -28 -8 -27 -25
0 -13 -3 -23 -8 -23 -4 0 -8 11 -8 25 0 37 48 58 124 53 l61 -3 1 124 c0 114
2 125 20 131 25 9 47 1 36 -14z m226 -42 c19 -30 47 -64 63 -76 35 -26 36 -38
6 -66 -20 -19 -27 -20 -53 -10 -41 15 -82 -6 -109 -56 l-20 -39 -12 39 c-15
50 -16 118 -2 169 12 44 54 95 78 95 9 0 31 -25 49 -56z m2252 -109 c10 -12
10 -15 -1 -15 -8 -1 -34 -18 -57 -39 l-44 -38 35 -22 c23 -14 50 -21 83 -21
40 1 45 3 31 11 -10 6 -28 9 -39 6 -12 -4 -28 2 -39 12 -19 17 -19 18 1 36 16
14 23 16 32 7 16 -16 101 -15 117 1 10 10 11 6 5 -18 -7 -34 -51 -85 -71 -85
-7 0 -21 -5 -31 -11 -23 -15 -100 9 -188 57 -33 19 -72 34 -85 34 -23 1 -23 1
-4 13 11 7 36 17 55 24 31 11 25 12 -55 8 -73 -4 -83 -3 -55 6 19 5 42 13 50
16 26 11 132 28 192 30 39 2 60 -2 68 -12z m257 -36 c85 -45 86 -47 77 -164
-10 -135 -10 -214 -2 -250 l7 -31 -50 -2 c-51 -2 -80 -12 -111 -40 -27 -23
-22 -40 22 -62 41 -21 72 -69 86 -133 9 -44 32 -88 61 -114 25 -24 103 -63
124 -63 8 0 9 -10 4 -32 -4 -18 -10 -59 -14 -91 -3 -32 -10 -58 -16 -59 -5 0
-21 20 -35 45 -75 136 -192 256 -304 310 -43 21 -91 40 -107 44 -16 3 -29 9
-29 13 0 10 26 20 49 20 32 0 89 64 103 114 8 32 17 46 29 46 38 0 49 12 49
51 0 22 -7 51 -16 64 -15 23 -15 25 0 31 27 10 18 50 -28 118 -24 36 -41 66
-36 66 17 0 42 73 38 111 -3 35 -1 39 19 39 12 0 49 -14 80 -31z m-2324 -25
c23 -15 44 -28 46 -30 8 -7 -24 -36 -60 -54 -34 -18 -56 -46 -44 -58 3 -3 21
2 40 11 l35 17 0 -25 c0 -14 -16 -45 -35 -71 -29 -38 -35 -54 -34 -92 1 -64
17 -103 18 -44 2 81 46 135 107 130 44 -4 57 -24 20 -34 -30 -7 -83 -64 -92
-98 -9 -38 -1 -81 16 -81 10 0 16 12 18 33 3 28 10 36 39 48 29 13 41 13 65 3
40 -17 42 -23 13 -66 -23 -33 -25 -44 -19 -88 6 -45 5 -48 -10 -36 -9 7 -16
19 -16 26 0 16 -30 73 -31 60 -1 -5 -2 -19 -3 -30 -1 -23 -40 -30 -59 -10 -30
31 -67 75 -67 80 0 3 -8 15 -19 26 -19 20 -30 59 -32 108 -1 24 -2 23 -11 -8
-6 -23 -6 -49 2 -83 7 -27 9 -52 6 -55 -3 -4 -6 3 -6 14 0 12 -5 23 -11 25
-15 5 -15 138 0 166 6 10 7 22 4 26 -11 11 -53 -87 -53 -126 0 -20 5 -50 11
-65 29 -70 40 -93 49 -98 6 -3 10 -13 10 -21 0 -11 -6 -14 -22 -9 -23 6 -23 6
-3 -12 26 -24 53 -58 40 -52 -5 3 -31 15 -56 28 -81 40 -149 140 -149 218 0
63 12 68 49 23 18 -23 35 -39 38 -36 3 2 -7 39 -21 81 -38 113 -31 216 15 230
34 11 41 -3 34 -74 l-6 -66 20 25 c11 14 23 36 26 49 9 37 69 119 88 120 4 1
26 -11 50 -25z m1497 -51 c0 -3 -10 -20 -23 -37 -36 -49 -74 -135 -91 -207
-17 -69 -21 -149 -8 -149 4 0 15 26 25 58 21 65 77 153 112 176 14 9 35 16 47
16 31 -1 60 -24 53 -42 -3 -8 -1 -26 4 -40 8 -21 5 -32 -14 -60 -13 -20 -31
-38 -40 -41 -8 -4 -15 -15 -15 -26 0 -12 -13 -25 -35 -35 -19 -10 -42 -28 -51
-42 -20 -29 -45 -30 -101 -4 l-43 19 0 63 c0 41 -7 78 -20 107 -22 48 -91 121
-115 121 -8 0 -15 4 -15 8 0 5 -12 13 -27 18 l-28 11 27 13 c25 12 30 11 45
-6 23 -25 62 -49 92 -57 37 -9 81 3 81 22 0 9 14 25 30 35 17 10 41 33 53 52
19 29 57 47 57 27z m-1338 -26 c36 -13 63 -27 61 -34 -6 -18 14 -25 36 -11 15
9 31 9 73 -1 46 -11 290 -40 342 -41 17 0 18 -2 5 -17 -23 -28 -37 -64 -45
-113 -18 -123 -85 -181 -170 -145 -41 17 -44 35 -6 35 71 0 105 108 49 156
-22 19 -40 24 -82 24 -46 0 -59 -5 -89 -31 -86 -75 -89 -188 -7 -282 l29 -33
-54 -12 c-48 -12 -56 -11 -78 5 -59 43 -66 111 -18 154 18 16 32 37 32 46 0
21 -58 73 -82 73 -9 0 -20 5 -23 10 -3 6 4 10 18 10 35 0 52 23 37 50 -14 26
-68 60 -96 60 -18 0 -23 7 -26 43 -3 28 0 48 10 60 8 9 16 17 17 17 1 0 31
-10 67 -23z m1536 -34 c23 -22 42 -61 42 -85 0 -32 -38 -78 -65 -78 -28 0 -36
17 -22 48 7 16 7 29 -3 47 -14 27 -40 41 -40 22 0 -8 -20 -13 -58 -14 l-57 -2
33 30 c21 18 43 29 63 29 34 0 85 -23 92 -42 4 -9 6 -8 6 2 1 9 -6 26 -15 38
-18 26 -1 30 24 5z m805 -46 c20 -43 26 -73 30 -162 3 -61 10 -128 15 -150 25
-98 24 -92 10 -71 -7 11 -36 43 -64 71 -71 71 -75 99 -43 308 6 37 14 65 19
62 4 -2 19 -29 33 -58z m367 23 c0 -25 -33 -91 -53 -108 -20 -17 -52 -91 -43
-100 4 -4 17 4 28 18 53 66 65 79 97 98 19 12 38 19 43 16 4 -3 8 -30 8 -60 0
-51 -1 -54 -25 -54 -14 0 -25 -4 -25 -8 0 -5 11 -15 25 -22 35 -19 36 -70 1
-70 -60 0 -135 -54 -121 -87 7 -17 8 -17 17 2 21 46 120 60 126 18 2 -16 -5
-26 -33 -39 -46 -22 -75 -59 -75 -98 0 -17 -4 -48 -9 -69 -10 -42 14 -127 38
-135 11 -4 12 1 6 19 -24 77 -9 155 35 179 39 21 40 15 40 -170 0 -208 -2
-211 -75 -127 -50 57 -108 169 -120 232 -11 57 -9 150 4 219 12 59 8 83 -9 56
-6 -10 -10 30 -10 113 l0 127 53 35 c61 40 77 43 77 15z m-676 -32 c20 -23 36
-51 36 -64 0 -20 -3 -21 -42 -13 -24 4 -56 12 -71 18 -35 14 -40 14 -32 0 4
-5 18 -14 31 -20 14 -5 33 -22 42 -39 18 -32 32 -39 32 -15 0 26 17 16 34 -19
36 -75 5 -101 -61 -50 -35 26 -45 15 -18 -20 35 -46 6 -129 -55 -161 -43 -22
-53 -19 -45 15 5 21 1 39 -13 63 -20 31 -20 33 -2 80 19 50 9 77 -12 30 -7
-15 -17 -33 -23 -39 -11 -12 -50 -34 -59 -34 -12 0 -5 89 10 125 8 20 14 47
12 59 -3 17 -8 12 -24 -24 -12 -25 -33 -56 -48 -69 -26 -24 -26 -24 -41 -5
-21 28 -18 58 10 84 19 18 25 34 25 66 0 81 40 77 84 -9 16 -32 25 -43 29 -33
4 9 0 28 -8 43 -23 43 -18 49 14 19 16 -15 36 -46 46 -69 9 -23 21 -50 26 -59
5 -10 9 -27 9 -38 0 -11 5 -20 10 -20 30 0 -17 148 -63 197 -11 13 -18 26 -15
29 14 13 97 -9 122 -33 30 -28 49 -24 23 5 -19 20 -22 42 -8 42 5 0 26 -19 45
-42z m-404 -43 c0 -19 5 -35 10 -35 14 0 13 -33 -1 -47 -9 -9 -8 -20 4 -45 10
-21 12 -37 6 -42 -33 -34 13 -48 62 -19 36 21 47 11 31 -29 -16 -42 -4 -52 44
-39 33 9 41 8 52 -6 26 -35 13 -80 -21 -74 -5 1 -11 -8 -14 -19 -4 -16 -11
-20 -32 -16 -71 13 -121 16 -121 8 0 -8 101 -62 115 -62 3 0 15 -8 26 -17 115
-93 143 -138 144 -228 0 -43 -5 -69 -18 -89 -24 -36 -80 -59 -123 -51 -29 5
-35 2 -49 -24 -25 -49 -19 -84 23 -130 33 -38 43 -43 95 -48 54 -6 69 -14 47
-28 -12 -8 -13 -65 -1 -84 13 -20 -90 -85 -122 -77 -12 3 -29 1 -37 -4 -22
-14 6 -57 62 -94 26 -17 47 -33 47 -36 -1 -3 -21 -22 -45 -44 -42 -36 -57 -41
-114 -34 -61 7 -1 -114 78 -158 53 -30 127 -32 182 -5 22 11 40 15 40 10 0
-17 75 -8 115 14 43 25 83 77 92 120 5 24 8 20 28 -39 26 -76 56 -107 97 -100
21 4 32 -1 52 -25 14 -17 26 -38 26 -47 0 -9 3 -27 6 -39 l6 -23 -305 0 -306
0 2 27 c1 19 -5 30 -21 39 -12 6 -33 21 -46 33 -25 23 -62 28 -69 9 -3 -10
-11 -10 -35 -2 -26 10 -36 9 -62 -8 -28 -17 -34 -17 -49 -5 -26 23 -56 28 -77
13 -15 -12 -17 -17 -6 -27 6 -7 12 -28 12 -46 0 -33 0 -33 -51 -33 -54 0 -53
-2 -14 55 11 17 36 56 55 88 20 32 42 57 52 57 9 0 29 14 45 31 15 17 47 39
69 50 56 27 104 95 104 147 0 47 -22 94 -56 121 l-25 20 17 68 c24 91 23 296
0 341 -15 30 -15 33 9 68 28 42 31 61 10 88 -8 11 -15 30 -15 42 0 12 -11 36
-24 52 -18 20 -23 36 -19 52 7 28 -18 50 -57 50 -14 0 -33 9 -43 20 -18 22
-22 40 -8 40 13 0 20 35 9 54 -5 10 -5 16 0 16 19 0 21 55 3 80 -32 46 -32 58
-2 65 39 8 78 53 86 98 9 47 25 48 25 2z m-1060 -14 c0 -4 -5 -22 -11 -40 -6
-18 -8 -35 -5 -38 9 -9 35 29 36 51 0 11 3 17 6 13 13 -13 4 -100 -12 -126 -9
-14 -31 -38 -47 -53 -17 -16 -25 -28 -17 -28 8 0 29 14 47 32 18 17 35 29 38
26 3 -3 -1 -13 -10 -21 -8 -9 -15 -18 -15 -21 0 -15 -97 -97 -136 -115 -57
-27 -91 -28 -48 -2 42 26 56 47 23 36 -13 -4 -50 -10 -81 -12 -47 -4 -64 -1
-92 17 -70 43 -94 116 -56 177 18 30 60 62 60 46 0 -4 5 -2 12 5 18 18 56 14
68 -7 24 -45 0 -89 -40 -76 -18 6 -21 13 -18 41 5 39 -4 42 -32 14 -41 -41
-35 -103 17 -155 22 -21 35 -25 89 -25 53 0 67 4 94 26 40 34 58 71 71 142 11
58 32 102 49 102 6 0 10 -4 10 -9z m328 -4 c58 -18 110 -60 120 -100 14 -50 4
-118 -20 -144 -25 -27 -91 -34 -82 -8 4 8 15 15 25 15 22 0 26 28 6 36 -10 3
-14 23 -13 64 1 52 -3 62 -28 89 -16 17 -38 33 -48 37 -10 3 -18 10 -18 15 0
12 6 11 58 -4z m1592 -21 c0 -8 -4 -18 -10 -21 -13 -8 -13 -115 -1 -134 10
-15 10 -15 24 54 3 11 5 -22 6 -72 1 -56 -3 -93 -9 -94 -5 -1 -19 -1 -30 -1
-37 0 -40 2 -40 30 0 15 -4 32 -9 38 -5 5 -13 55 -16 112 l-8 102 47 0 c33 0
46 -4 46 -14z m-1676 -99 c10 -8 16 -22 14 -33 -3 -15 -11 -18 -36 -16 -23 1
-32 -2 -32 -13 0 -16 34 -55 49 -55 4 0 8 -12 7 -27 0 -16 3 -41 7 -57 l8 -28
-43 6 c-24 3 -94 6 -156 7 -62 1 -112 4 -110 9 5 12 100 123 142 163 56 56
111 72 150 44z m676 -30 c0 -4 -4 -17 -10 -27 -7 -14 -5 -19 10 -23 24 -6 25
-20 5 -41 -8 -8 -15 -21 -15 -29 0 -36 -12 -47 -53 -47 -32 0 -38 3 -29 12 19
19 14 30 -7 18 -24 -12 -81 -13 -81 -1 0 5 8 19 19 32 16 20 21 21 35 10 13
-11 20 -10 41 10 14 13 30 41 35 61 8 27 15 36 30 35 11 -1 20 -5 20 -10z
m785 -108 c65 -31 135 -115 135 -163 0 -20 -4 -36 -9 -36 -5 0 -26 21 -47 47
-21 25 -40 41 -42 34 -2 -6 17 -37 42 -67 41 -50 56 -90 40 -106 -11 -11 -80
17 -106 44 -15 16 -36 56 -47 93 -24 77 -36 102 -64 133 -18 20 -19 24 -7 32
24 15 57 12 105 -11z m-795 -95 c0 -4 -8 -13 -17 -20 -25 -17 -11 -27 21 -14
41 15 86 13 86 -5 0 -8 8 -16 18 -16 16 -1 16 -2 0 -6 -10 -2 -18 -9 -18 -14
0 -5 -12 -9 -26 -9 -14 0 -23 -4 -19 -10 3 -5 21 -10 38 -10 41 -1 67 -21 67
-52 0 -14 7 -31 15 -38 15 -13 20 -42 9 -53 -17 -16 -164 91 -164 119 0 17
-12 18 -28 2 -9 -9 -12 -9 -12 0 0 7 -9 12 -21 12 -20 0 -77 34 -91 54 -8 12
33 52 59 59 28 7 83 8 83 1z m645 -303 c87 -156 103 -276 56 -410 -23 -67 -82
-160 -96 -155 -7 3 -29 -6 -50 -20 -44 -30 -92 -41 -140 -32 -44 9 -45 30 -2
44 25 8 27 10 10 11 -37 2 -35 17 7 45 37 24 43 25 82 15 40 -11 46 -10 93 19
57 35 105 106 86 125 -8 8 -11 8 -11 -1 0 -34 -98 -112 -142 -112 -29 0 -78
38 -78 61 0 20 0 20 26 0 26 -21 76 -27 109 -15 24 10 -1 24 -42 24 -17 0 -35
5 -38 10 -3 6 3 10 13 10 33 0 89 28 110 55 12 15 26 51 33 81 14 64 5 114
-41 227 -28 66 -18 77 15 18z m-145 -109 c0 -16 -9 -37 -19 -46 -11 -10 -17
-24 -14 -32 3 -8 -1 -14 -11 -14 -9 0 -16 -4 -16 -10 0 -5 -9 -10 -20 -10 -11
0 -20 -4 -20 -10 0 -10 43 -15 85 -10 19 2 19 1 2 -18 -21 -23 -82 -41 -113
-33 -35 10 -73 45 -80 74 -5 24 -3 27 19 27 62 0 167 61 167 97 0 7 5 13 10
13 6 0 10 -13 10 -28z m658 0 c15 -11 53 -32 84 -47 32 -16 61 -38 64 -48 3
-11 3 -43 -1 -73 -8 -64 -46 -104 -99 -104 -76 0 -106 53 -106 190 0 110 6
118 58 82z m-378 -205 c1 -12 7 -35 15 -52 l15 -30 -3 38 c-2 20 0 37 4 37 7
0 21 -49 38 -135 6 -27 15 -70 20 -95 20 -93 -7 -290 -39 -290 -16 0 -50 72
-50 104 0 19 7 47 15 62 8 16 15 42 15 59 0 36 -41 175 -52 175 -9 0 -10 69
-2 122 7 39 24 43 24 5z m-53 -207 c4 -11 9 -7 18 15 12 28 13 26 20 -48 4
-44 3 -87 -2 -99 -8 -19 -11 -17 -36 19 -15 21 -27 47 -27 57 0 10 -6 16 -12
14 -17 -6 -23 -57 -9 -71 18 -18 13 -119 -7 -150 -20 -30 -51 -56 -67 -57 -19
0 -10 144 12 186 11 21 18 44 16 51 -3 7 7 25 21 40 14 15 26 31 26 36 0 4 8
20 17 34 16 24 18 25 21 7 2 -10 6 -26 9 -34z m-2689 -125 c2 -2 -1 -12 -7
-24 -7 -13 -8 -22 -1 -26 6 -4 10 -53 10 -116 0 -90 -3 -111 -16 -116 -27 -10
-39 15 -39 85 0 37 -4 73 -8 80 -13 20 -65 15 -79 -8 -25 -40 -68 -18 -68 35
0 53 43 75 68 35 8 -14 23 -20 46 -20 37 0 46 12 46 61 0 27 3 30 23 23 12 -3
23 -8 25 -9z m2469 -29 c-59 -53 -48 -69 13 -20 44 35 61 33 41 -5 -6 -11 -11
-33 -11 -49 0 -19 -12 -45 -32 -70 -62 -75 -184 -80 -242 -11 -34 40 -33 49 5
49 26 0 43 11 88 59 51 54 61 60 109 66 28 4 52 11 52 16 0 5 6 9 13 9 6 -1
-10 -20 -36 -44z m-859 -552 l53 -35 -2 -72 -2 -72 1406 -3 1407 -2 0 -35 0
-34 -112 -3 -113 -3 -3 -34 c-5 -55 5 -76 45 -94 49 -22 76 -45 107 -92 23
-33 26 -48 26 -126 0 -106 -19 -158 -86 -229 -48 -51 -131 -110 -155 -110 -14
0 -109 89 -109 102 0 4 9 8 21 8 50 0 175 73 234 136 54 59 57 65 63 130 5 61
4 65 -27 93 -19 17 -48 32 -72 36 -46 8 -144 -2 -174 -17 -48 -25 -102 -79
-123 -124 -13 -27 -27 -57 -33 -66 -5 -10 -9 -25 -9 -33 0 -19 2 -20 -69 11
-71 31 -76 46 -36 124 35 69 33 88 -10 96 -103 19 -196 -17 -252 -98 -24 -36
-28 -51 -28 -112 0 -69 2 -74 46 -136 26 -36 65 -80 88 -98 44 -36 57 -65 16
-38 -13 9 -31 16 -39 16 -8 0 -16 4 -18 8 -1 4 -21 19 -43 32 -56 35 -112 86
-147 138 -42 60 -50 148 -20 213 46 100 149 160 274 160 70 0 86 -4 152 -37
l74 -37 43 20 c24 11 68 28 97 38 31 11 53 25 53 34 1 9 2 32 3 51 l1 35 -605
0 -605 0 0 -60 0 -60 40 3 c234 18 270 14 323 -33 46 -40 53 -76 59 -307 5
-196 4 -218 -10 -218 -25 0 -70 22 -87 42 -15 18 -18 18 -83 -12 -56 -25 -81
-30 -150 -31 -100 -2 -155 14 -206 58 -75 63 -77 141 -8 217 74 80 197 124
310 112 33 -3 73 -13 90 -21 43 -21 47 -19 47 24 0 32 -6 44 -31 65 -41 34
-67 40 -158 33 -75 -6 -117 -16 -178 -43 -59 -27 -77 -15 -48 30 12 18 15 46
13 112 l-3 89 -575 3 c-316 1 -584 0 -595 -2 -20 -5 -20 -11 -15 -309 4 -237
8 -308 19 -320 18 -23 83 -22 104 1 27 29 47 88 47 137 0 25 2 45 5 45 7 0 99
-51 110 -61 23 -22 -65 -129 -128 -157 -15 -6 -59 -12 -96 -12 -65 0 -71 2
-111 38 -66 58 -70 79 -70 380 l0 263 -107 -3 -108 -3 -3 -128 c-2 -117 -4
-128 -20 -122 -150 62 -410 49 -476 -24 -27 -29 -18 -92 15 -110 29 -16 30
-16 186 35 106 35 167 31 260 -19 83 -45 85 -161 3 -235 -34 -30 -119 -72
-146 -72 -36 0 -40 -21 -10 -47 17 -14 40 -23 62 -23 30 0 38 -6 64 -47 17
-26 30 -50 30 -54 0 -14 -80 -19 -116 -6 -30 9 -48 27 -85 81 -26 38 -54 73
-63 78 -8 5 -44 11 -80 15 -110 10 -189 67 -171 124 14 42 90 47 145 9 57 -39
94 -50 164 -50 181 0 321 101 224 160 -43 26 -53 25 -194 -10 -65 -16 -130
-30 -143 -30 -86 0 -180 74 -201 159 -6 28 -9 64 -5 80 8 36 75 97 116 106 16
4 31 11 34 16 9 13 207 11 258 -3 66 -17 73 -11 69 61 l-4 61 -516 -2 -517 -3
0 -60 0 -60 40 3 c22 2 88 5 147 8 101 5 108 4 147 -20 23 -15 50 -44 63 -68
21 -40 23 -57 26 -260 3 -211 2 -218 -17 -218 -11 0 -23 5 -26 10 -3 6 -14 10
-24 10 -10 0 -25 9 -32 20 -14 19 -15 19 -84 -11 -61 -27 -81 -31 -160 -31
-104 0 -141 13 -205 70 -42 37 -44 42 -44 94 -1 45 4 61 27 91 34 45 96 88
162 113 66 25 206 26 252 1 46 -25 53 -22 53 22 0 86 -118 123 -273 86 -40 -9
-76 -21 -82 -25 -13 -11 -85 -24 -85 -16 0 4 9 19 20 34 18 24 20 40 18 118
l-3 89 -102 3 -103 3 0 -59 c0 -66 -12 -109 -47 -165 -13 -21 -32 -53 -42 -70
-10 -18 -32 -57 -49 -87 -17 -30 -59 -107 -95 -170 -35 -62 -71 -119 -80 -124
-11 -7 -26 -6 -50 6 -50 24 -152 123 -171 166 -9 20 -21 45 -26 54 -6 10 -10
50 -10 91 0 61 4 78 26 110 15 23 24 48 22 65 -2 23 -8 28 -37 30 -27 3 -40
-3 -70 -32 l-37 -36 -37 27 c-20 16 -36 33 -37 38 0 6 14 18 31 28 44 25 163
24 206 -3 60 -36 68 -66 65 -235 -3 -175 1 -211 29 -226 25 -13 54 10 86 69
11 20 61 112 111 204 l92 166 0 76 0 76 -357 2 -358 3 0 30 0 30 1228 3 1227
2 0 110 c0 61 3 110 8 110 4 0 31 -16 60 -36z m941 -380 c50 -25 101 -81 102
-112 2 -54 -3 -68 -44 -110 -69 -71 -74 -72 -123 -16 l-43 49 37 19 c46 24 80
59 88 93 6 21 1 32 -25 55 -17 15 -42 28 -55 28 -74 0 -182 -87 -229 -183 -26
-52 -27 -60 -27 -225 0 -95 -2 -172 -5 -172 -3 0 -32 14 -65 30 l-60 30 0 255
0 255 65 0 c63 0 65 -1 65 -25 0 -14 1 -25 3 -25 2 0 35 15 73 34 58 29 80 35
140 35 46 1 82 -5 103 -15z"/>
<path d="M3805 2526 c-64 -18 -119 -51 -159 -96 -29 -33 -37 -48 -34 -73 11
-110 287 -76 426 52 59 55 37 82 -96 117 -60 16 -81 16 -137 0z"/>
<path d="M6525 2526 c-117 -34 -222 -135 -195 -186 23 -43 130 -63 209 -39 99
30 124 40 173 72 62 40 88 78 68 102 -38 46 -178 74 -255 51z"/>
</g>
</svg>
